HIERARCHY
ROOT mixamorig:Hips
{
	OFFSET 0.000000 201.639420 0.000000
	CHANNELS 6 Xposition Yposition Zposition Xrotation Yrotation Zrotation
	JOINT mixamorig:Spine
	{
		OFFSET 0.006200 19.524994 -2.481800
		CHANNELS 3 Xrotation Yrotation Zrotation
		JOINT mixamorig:Spine1
		{
			OFFSET -0.000900 22.835007 -2.825400
			CHANNELS 3 Xrotation Yrotation Zrotation
			JOINT mixamorig:Spine2
			{
				OFFSET -0.020600 26.552490 -3.193300
				CHANNELS 3 Xrotation Yrotation Zrotation
				JOINT mixamorig:Neck
				{
					OFFSET -0.060000 30.701813 1.352200
					CHANNELS 3 Xrotation Yrotation Zrotation
					JOINT mixamorig:Head
					{
						OFFSET -0.087200 22.547607 3.670900
						CHANNELS 3 Xrotation Yrotation Zrotation
						JOINT mixamorig:HeadTop_End
						{
							OFFSET -0.830600 40.355194 7.893500
							CHANNELS 3 Xrotation Yrotation Zrotation
							End Site
							{
								OFFSET 0.000000 30.592346 0.000000
							}
						}
						JOINT mixamorig:RightEye
						{
							OFFSET -6.302100 18.118591 16.197100
							CHANNELS 3 Xrotation Yrotation Zrotation
							End Site
							{
								OFFSET 0.000000 30.592346 0.000000
							}
						}
						JOINT mixamorig:LeftEye
						{
							OFFSET 6.741500 18.382690 16.401899
							CHANNELS 3 Xrotation Yrotation Zrotation
							End Site
							{
								OFFSET 0.000000 30.592346 0.000000
							}
						}
					}
				}
				JOINT mixamorig:LeftShoulder
				{
					OFFSET 11.924900 18.230499 1.425400
					CHANNELS 3 Xrotation Yrotation Zrotation
					JOINT mixamorig:LeftArm
					{
						OFFSET 25.435989 -0.697632 -5.229300
						CHANNELS 3 Xrotation Yrotation Zrotation
						JOINT mixamorig:LeftForeArm
						{
							OFFSET 54.684776 0.000000 0.000000
							CHANNELS 3 Xrotation Yrotation Zrotation
							JOINT mixamorig:LeftHand
							{
								OFFSET 55.098175 0.000000 0.000000
								CHANNELS 3 Xrotation Yrotation Zrotation
								JOINT mixamorig:LeftHandMiddle1
								{
									OFFSET 23.369751 0.000000 0.000000
									CHANNELS 3 Xrotation Yrotation Zrotation
									JOINT mixamorig:LeftHandMiddle2
									{
										OFFSET 6.378677 0.000000 0.000000
										CHANNELS 3 Xrotation Yrotation Zrotation
										JOINT mixamorig:LeftHandMiddle3
										{
											OFFSET 6.148331 0.000000 0.000000
											CHANNELS 3 Xrotation Yrotation Zrotation
											JOINT mixamorig:LeftHandMiddle4
											{
												OFFSET 6.582504 0.000000 0.000000
												CHANNELS 3 Xrotation Yrotation Zrotation
												End Site
												{
													OFFSET -1.168900 6.395691 1.028606
												}
											}
										}
									}
								}
								JOINT mixamorig:LeftHandThumb1
								{
									OFFSET 7.235672 -3.848206 5.434273
									CHANNELS 3 Xrotation Yrotation Zrotation
									JOINT mixamorig:LeftHandThumb2
									{
										OFFSET 6.568451 -3.792297 3.792300
										CHANNELS 3 Xrotation Yrotation Zrotation
										JOINT mixamorig:LeftHandThumb3
										{
											OFFSET 6.063080 -3.500519 3.500518
											CHANNELS 3 Xrotation Yrotation Zrotation
											JOINT mixamorig:LeftHandThumb4
											{
												OFFSET 4.793182 -2.767334 2.767349
												CHANNELS 3 Xrotation Yrotation Zrotation
												End Site
												{
													OFFSET 0.101639 6.054260 1.275483
												}
											}
										}
									}
								}
								JOINT mixamorig:LeftHandIndex1
								{
									OFFSET 23.101074 -0.309540 4.992809
									CHANNELS 3 Xrotation Yrotation Zrotation
									JOINT mixamorig:LeftHandIndex2
									{
										OFFSET 6.226883 0.000000 0.000000
										CHANNELS 3 Xrotation Yrotation Zrotation
										JOINT mixamorig:LeftHandIndex3
										{
											OFFSET 6.094330 0.000000 0.000000
											CHANNELS 3 Xrotation Yrotation Zrotation
											JOINT mixamorig:LeftHandIndex4
											{
												OFFSET 5.482605 0.000000 0.000000
												CHANNELS 3 Xrotation Yrotation Zrotation
												End Site
												{
													OFFSET -1.427902 5.233032 0.797164
												}
											}
										}
									}
								}
								JOINT mixamorig:LeftHandRing1
								{
									OFFSET 22.299240 0.021149 -3.964172
									CHANNELS 3 Xrotation Yrotation Zrotation
									JOINT mixamorig:LeftHandRing2
									{
										OFFSET 6.321869 0.000000 0.000000
										CHANNELS 3 Xrotation Yrotation Zrotation
										JOINT mixamorig:LeftHandRing3
										{
											OFFSET 5.899796 0.000000 0.000000
											CHANNELS 3 Xrotation Yrotation Zrotation
											JOINT mixamorig:LeftHandRing4
											{
												OFFSET 6.517899 0.000000 0.000000
												CHANNELS 3 Xrotation Yrotation Zrotation
												End Site
												{
													OFFSET -1.637299 6.232208 0.980890
												}
											}
										}
									}
								}
								JOINT mixamorig:LeftHandPinky1
								{
									OFFSET 20.463791 -0.302338 -8.562233
									CHANNELS 3 Xrotation Yrotation Zrotation
									JOINT mixamorig:LeftHandPinky2
									{
										OFFSET 6.908646 0.000000 0.000000
										CHANNELS 3 Xrotation Yrotation Zrotation
										JOINT mixamorig:LeftHandPinky3
										{
											OFFSET 4.622849 0.000000 0.000000
											CHANNELS 3 Xrotation Yrotation Zrotation
											JOINT mixamorig:LeftHandPinky4
											{
												OFFSET 5.216080 0.000000 0.000000
												CHANNELS 3 Xrotation Yrotation Zrotation
												End Site
												{
													OFFSET -0.606308 5.116241 0.814926
												}
											}
										}
									}
								}
							}
						}
					}
				}
				JOINT mixamorig:RightShoulder
				{
					OFFSET -12.001300 18.284088 1.348900
					CHANNELS 3 Xrotation Yrotation Zrotation
					JOINT mixamorig:RightArm
					{
						OFFSET -25.308500 -0.751312 -5.164599
						CHANNELS 3 Xrotation Yrotation Zrotation
						JOINT mixamorig:RightForeArm
						{
							OFFSET -54.684429 0.000000 0.000000
							CHANNELS 3 Xrotation Yrotation Zrotation
							JOINT mixamorig:RightHand
							{
								OFFSET -55.150291 0.000000 0.000000
								CHANNELS 3 Xrotation Yrotation Zrotation
								JOINT mixamorig:RightHandMiddle1
								{
									OFFSET -23.317566 0.000000 0.000000
									CHANNELS 3 Xrotation Yrotation Zrotation
									JOINT mixamorig:RightHandMiddle2
									{
										OFFSET -6.378403 0.000000 0.000000
										CHANNELS 3 Xrotation Yrotation Zrotation
										JOINT mixamorig:RightHandMiddle3
										{
											OFFSET -6.148193 0.000000 0.000000
											CHANNELS 3 Xrotation Yrotation Zrotation
											JOINT mixamorig:RightHandMiddle4
											{
												OFFSET -6.583389 0.000000 0.000000
												CHANNELS 3 Xrotation Yrotation Zrotation
												End Site
												{
													OFFSET 1.171692 6.395905 1.029786
												}
											}
										}
									}
								}
								JOINT mixamorig:RightHandThumb1
								{
									OFFSET -7.190521 -3.860474 5.435846
									CHANNELS 3 Xrotation Yrotation Zrotation
									JOINT mixamorig:RightHandThumb2
									{
										OFFSET -6.567429 -3.791718 3.791708
										CHANNELS 3 Xrotation Yrotation Zrotation
										JOINT mixamorig:RightHandThumb3
										{
											OFFSET -6.062469 -3.500153 3.500166
											CHANNELS 3 Xrotation Yrotation Zrotation
											JOINT mixamorig:RightHandThumb4
											{
												OFFSET -4.792618 -2.767029 2.767022
												CHANNELS 3 Xrotation Yrotation Zrotation
												End Site
												{
													OFFSET -0.100327 6.053253 1.276754
												}
											}
										}
									}
								}
								JOINT mixamorig:RightHandIndex1
								{
									OFFSET -23.048981 -0.310791 4.992554
									CHANNELS 3 Xrotation Yrotation Zrotation
									JOINT mixamorig:RightHandIndex2
									{
										OFFSET -6.227539 0.000000 0.000000
										CHANNELS 3 Xrotation Yrotation Zrotation
										JOINT mixamorig:RightHandIndex3
										{
											OFFSET -6.095047 0.000000 0.000000
											CHANNELS 3 Xrotation Yrotation Zrotation
											JOINT mixamorig:RightHandIndex4
											{
												OFFSET -5.484772 0.000000 0.000000
												CHANNELS 3 Xrotation Yrotation Zrotation
												End Site
												{
													OFFSET 1.420593 5.237305 0.797056
												}
											}
										}
									}
								}
								JOINT mixamorig:RightHandRing1
								{
									OFFSET -22.246323 0.020569 -3.963762
									CHANNELS 3 Xrotation Yrotation Zrotation
									JOINT mixamorig:RightHandRing2
									{
										OFFSET -6.322128 0.000000 0.000000
										CHANNELS 3 Xrotation Yrotation Zrotation
										JOINT mixamorig:RightHandRing3
										{
											OFFSET -5.900024 0.000000 0.000000
											CHANNELS 3 Xrotation Yrotation Zrotation
											JOINT mixamorig:RightHandRing4
											{
												OFFSET -6.518356 0.000000 0.000000
												CHANNELS 3 Xrotation Yrotation Zrotation
												End Site
												{
													OFFSET 1.636398 6.232697 0.982186
												}
											}
										}
									}
								}
								JOINT mixamorig:RightHandPinky1
								{
									OFFSET -20.411011 -0.303314 -8.561701
									CHANNELS 3 Xrotation Yrotation Zrotation
									JOINT mixamorig:RightHandPinky2
									{
										OFFSET -6.907349 0.000000 0.000000
										CHANNELS 3 Xrotation Yrotation Zrotation
										JOINT mixamorig:RightHandPinky3
										{
											OFFSET -4.623840 0.000000 0.000000
											CHANNELS 3 Xrotation Yrotation Zrotation
											JOINT mixamorig:RightHandPinky4
											{
												OFFSET -5.218353 0.000000 0.000000
												CHANNELS 3 Xrotation Yrotation Zrotation
												End Site
												{
													OFFSET 0.602097 5.118835 0.816273
												}
											}
										}
									}
								}
							}
						}
					}
				}
			}
		}
	}
	JOINT mixamorig:LeftUpLeg
	{
		OFFSET 18.168400 -13.561905 -0.039000
		CHANNELS 3 Xrotation Yrotation Zrotation
		JOINT mixamorig:LeftLeg
		{
			OFFSET 0.577358 -80.825211 -3.695000
			CHANNELS 3 Xrotation Yrotation Zrotation
			JOINT mixamorig:LeftFoot
			{
				OFFSET -0.577356 -83.370262 -6.520700
				CHANNELS 3 Xrotation Yrotation Zrotation
				JOINT mixamorig:LeftToeBase
				{
					OFFSET 0.750401 -20.798306 25.135401
					CHANNELS 3 Xrotation Yrotation Zrotation
					JOINT mixamorig:LeftToe_End
					{
						OFFSET -0.000500 0.001200 19.917799
						CHANNELS 3 Xrotation Yrotation Zrotation
						End Site
						{
							OFFSET 0.000000 19.917805 0.000000
						}
					}
				}
			}
		}
	}
	JOINT mixamorig:RightUpLeg
	{
		OFFSET -18.162500 -13.585098 -0.041000
		CHANNELS 3 Xrotation Yrotation Zrotation
		JOINT mixamorig:RightLeg
		{
			OFFSET -0.595024 -80.945297 -3.631900
			CHANNELS 3 Xrotation Yrotation Zrotation
			JOINT mixamorig:RightFoot
			{
				OFFSET 0.595024 -83.218193 -6.561200
				CHANNELS 3 Xrotation Yrotation Zrotation
				JOINT mixamorig:RightToeBase
				{
					OFFSET -0.753601 -20.807106 25.115000
					CHANNELS 3 Xrotation Yrotation Zrotation
					JOINT mixamorig:RightToe_End
					{
						OFFSET 0.000299 0.001700 19.918200
						CHANNELS 3 Xrotation Yrotation Zrotation
						End Site
						{
							OFFSET 0.000000 19.918203 0.000000
						}
					}
				}
			}
		}
	}
}
MOTION
Frames: 6
Frame Time: 0.033333
-2.854904 154.563889 -2.841442 -15.323374 -2.414378 -5.694878 22.099548 -4.407446 3.938266 0.418382 -0.741634 0.561903 0.421541 -0.719977 0.586044 23.789470 -0.476205 -14.660697 -7.292036 13.935615 -21.462567 -0.000001 0.000000 -0.000000 -0.000001 0.000000 -0.000000 -0.000001 0.000000 -0.000000 2.668817 -16.044265 -8.560910 -44.750266 -43.753864 -69.581179 -0.000010 -113.091916 -0.000002 -50.401759 -6.051878 29.014736 -0.144220 -0.495919 -8.324396 2.737066 5.498159 -52.902998 1.987062 4.843066 -44.595712 0.000003 -0.000001 -0.000001 3.371881 9.797151 5.257837 6.844004 19.586476 -1.556986 -1.637867 33.618154 8.290177 -0.000001 0.000002 -0.000002 0.449563 2.452262 -20.319789 2.683736 5.457601 -52.344329 0.537948 2.672686 -22.756556 0.000001 -0.000001 0.000000 -0.264405 -2.206809 -6.069216 2.600791 5.392871 -51.467036 1.532969 4.336115 -38.925477 0.000000 -0.000001 -0.000001 -0.370896 -3.748153 -5.454062 2.158741 0.922506 -46.740559 0.263325 1.889594 -15.865455 0.000003 0.000000 -0.000001 0.420222 -3.802719 4.815959 -33.676176 33.101009 68.957337 0.000020 129.404122 -0.000020 58.869803 -12.858166 -32.287663 -0.410845 1.178982 12.253948 0.860884 -3.356291 28.765130 1.701954 -4.562075 40.900132 0.000001 -0.000000 -0.000000 -3.434404 -7.449196 -22.485133 13.462711 -23.604152 3.164090 -5.431132 -12.901404 -5.241060 0.000001 0.000002 0.000001 -0.556707 2.029841 11.727373 0.956553 -3.524637 30.359211 1.038233 -3.660236 31.662452 -0.000001 0.000000 -0.000001 -0.933544 3.461823 12.783460 1.368298 -4.146884 36.508314 1.210174 -3.924826 34.261684 -0.000001 -0.000001 -0.000002 -1.641328 3.783809 18.862846 1.060570 -3.696174 32.011007 1.234624 -3.960392 34.617315 -0.000001 0.000001 0.000001 -53.125570 -2.669869 10.723499 61.679402 -0.500810 5.119014 6.827667 -0.054684 -6.709217 -2.125137 0.000007 -0.000002 0.000000 0.000000 0.000000 -51.184150 -4.494869 -4.307961 61.992395 -2.163617 2.010564 4.589577 0.062664 2.070698 -0.483133 0.000007 -0.000002 -0.000000 -0.000001 0.000000 
-2.834150 154.594528 -2.844311 -15.159239 -2.412833 -5.697857 22.157393 -4.485314 3.992824 0.351721 -0.752381 0.527567 0.354468 -0.731622 0.552732 23.740303 -0.471354 -14.599213 -7.554014 13.983606 -21.467076 -0.000001 0.000000 -0.000001 -0.000001 0.000000 -0.000001 -0.000001 0.000000 -0.000001 2.618972 -15.905211 -8.415240 -45.229701 -46.268787 -69.154019 -0.000019 -117.161131 -0.000051 -44.908712 -6.762065 31.354461 -0.144235 -0.495905 -8.324401 2.737053 5.498152 -52.903012 1.987050 4.843068 -44.595692 -0.000002 0.000002 0.000001 3.371892 9.797147 5.257815 6.844001 19.586503 -1.556988 -1.637844 33.618154 8.290169 0.000001 -0.000001 0.000004 0.449565 2.452263 -20.319787 2.683704 5.457570 -52.344336 0.537949 2.672698 -22.756531 0.000001 0.000003 -0.000004 -0.264415 -2.206785 -6.069225 2.600776 5.392883 -51.467050 1.532962 4.336113 -38.925467 0.000001 0.000001 0.000002 -0.370902 -3.748137 -5.454057 2.158749 0.922510 -46.740562 0.263319 1.889592 -15.865423 0.000001 -0.000001 0.000005 0.418010 -3.920052 4.810860 -33.481304 33.677245 68.027031 0.000018 133.842625 -0.000027 60.140546 -12.374526 -32.891240 -0.410866 1.178966 12.253956 0.860896 -3.356268 28.765140 1.701927 -4.562073 40.900167 0.000003 -0.000001 -0.000002 -3.434405 -7.449189 -22.485143 13.462725 -23.604155 3.164092 -5.431143 -12.901427 -5.241059 -0.000001 0.000001 -0.000001 -0.556700 2.029827 11.727359 0.956557 -3.524625 30.359228 1.038216 -3.660206 31.662462 0.000002 -0.000003 -0.000000 -0.933552 3.461834 12.783448 1.368318 -4.146925 36.508314 1.210182 -3.924783 34.261694 -0.000001 0.000002 0.000001 -1.641328 3.783801 18.862843 1.060584 -3.696165 32.011003 1.234642 -3.960381 34.617321 -0.000001 0.000000 -0.000001 -53.276835 -2.685872 10.718379 61.632683 -0.508644 5.101140 6.861292 -0.059282 -6.693051 -2.104212 0.000001 0.000002 -0.000000 -0.000000 -0.000000 -51.327751 -4.515430 -4.340317 61.944372 -2.151098 2.044379 4.597376 0.064810 2.034003 -0.488149 0.000008 0.000001 -0.000000 -0.000001 -0.000000 
-2.797684 154.608322 -2.873726 -15.057213 -2.399580 -5.699249 22.248899 -4.489722 4.042512 0.303449 -0.753674 0.499982 0.305807 -0.733700 0.525709 23.625336 -0.472929 -14.508046 -7.892319 13.895286 -21.389337 -0.000001 0.000000 -0.000003 -0.000001 0.000000 -0.000003 -0.000001 0.000000 -0.000003 2.597591 -15.848003 -8.351432 -44.812813 -47.696823 -68.906486 0.000060 -119.477945 0.000051 -40.920217 -7.710135 33.479046 -0.144209 -0.495931 -8.324391 2.737033 5.498152 -52.902988 1.987058 4.843091 -44.595695 -0.000001 -0.000001 -0.000002 3.371886 9.797152 5.257828 6.843994 19.586505 -1.556984 -1.637868 33.618171 8.290159 -0.000001 0.000000 -0.000000 0.449560 2.452259 -20.319777 2.683707 5.457588 -52.344336 0.537953 2.672700 -22.756548 -0.000004 -0.000001 -0.000002 -0.264400 -2.206803 -6.069222 2.600760 5.392875 -51.467043 1.532974 4.336137 -38.925463 -0.000003 0.000001 0.000001 -0.370895 -3.748168 -5.454052 2.158761 0.922489 -46.740573 0.263325 1.889584 -15.865447 -0.000001 -0.000001 0.000000 0.414363 -3.996348 4.780123 -32.579900 34.371353 67.015152 0.000010 135.946815 -0.000018 60.817384 -11.692487 -33.834852 -0.410860 1.178964 12.253945 0.860890 -3.356256 28.765150 1.701934 -4.562070 40.900126 0.000001 0.000001 -0.000001 -3.434397 -7.449180 -22.485150 13.462726 -23.604154 3.164106 -5.431140 -12.901428 -5.241069 0.000001 0.000002 0.000001 -0.556700 2.029830 11.727366 0.956562 -3.524629 30.359214 1.038217 -3.660214 31.662455 0.000002 0.000002 -0.000005 -0.933545 3.461834 12.783449 1.368317 -4.146910 36.508328 1.210173 -3.924789 34.261673 -0.000001 -0.000001 0.000001 -1.641325 3.783784 18.862845 1.060583 -3.696164 32.011010 1.234622 -3.960381 34.617335 0.000001 -0.000002 -0.000000 -53.375801 -2.699309 10.691377 61.590999 -0.505273 5.095676 6.899674 -0.063449 -6.678564 -2.089703 0.000000 0.000003 -0.000000 -0.000000 0.000000 -51.419177 -4.525245 -4.378443 61.898630 -2.140505 2.069249 4.630104 0.064717 2.032014 -0.491298 0.000002 0.000002 0.000000 -0.000000 -0.000000 
-2.759260 154.591415 -2.939526 -15.066149 -2.346713 -5.739627 22.424491 -4.410360 4.136394 0.287208 -0.745316 0.482750 0.289151 -0.726243 0.508621 23.403826 -0.463787 -14.379167 -8.068718 13.685606 -21.335684 -0.000001 -0.000002 0.000002 -0.000001 -0.000002 0.000002 -0.000001 -0.000002 0.000002 2.607036 -15.870532 -8.387484 -43.240688 -47.301843 -68.775388 0.000027 -120.024455 0.000005 -39.350967 -8.806076 34.412750 -0.144236 -0.495918 -8.324394 2.737045 5.498149 -52.902998 1.987056 4.843077 -44.595688 -0.000003 0.000001 -0.000001 3.371884 9.797138 5.257828 6.844019 19.586479 -1.556977 -1.637850 33.618171 8.290152 0.000001 0.000000 -0.000003 0.449564 2.452248 -20.319787 2.683702 5.457608 -52.344323 0.537946 2.672674 -22.756551 -0.000002 0.000002 0.000001 -0.264412 -2.206790 -6.069206 2.600766 5.392878 -51.467040 1.532959 4.336116 -38.925473 -0.000000 -0.000001 0.000002 -0.370890 -3.748157 -5.454058 2.158738 0.922520 -46.740528 0.263325 1.889562 -15.865445 0.000000 -0.000001 0.000003 0.410455 -4.008183 4.751055 -31.106519 34.886540 66.061938 -0.000004 135.516650 0.000018 60.938354 -11.015698 -34.679859 -0.410860 1.178954 12.253927 0.860883 -3.356257 28.765174 1.701943 -4.562081 40.900122 0.000003 0.000000 -0.000002 -3.434412 -7.449202 -22.485143 13.462708 -23.604140 3.164091 -5.431148 -12.901409 -5.241047 0.000002 0.000001 -0.000001 -0.556706 2.029824 11.727346 0.956561 -3.524640 30.359241 1.038227 -3.660207 31.662455 0.000002 -0.000001 -0.000003 -0.933554 3.461841 12.783453 1.368314 -4.146925 36.508314 1.210183 -3.924796 34.261677 0.000001 -0.000001 0.000003 -1.641338 3.783792 18.862840 1.060576 -3.696143 32.011027 1.234621 -3.960377 34.617325 0.000000 -0.000000 0.000000 -53.394266 -2.729159 10.667159 61.576443 -0.523764 5.115819 6.939437 -0.064794 -6.663107 -2.076407 0.000003 0.000001 -0.000000 0.000001 0.000000 -51.403239 -4.551022 -4.402959 61.858442 -2.152877 2.095713 4.686274 0.065205 2.069841 -0.495889 -0.000008 -0.000003 -0.000000 -0.000000 -0.000000 
-2.712307 154.558044 -3.009033 -15.165253 -2.265055 -5.796832 22.473626 -4.273776 4.214171 0.342204 -0.727256 0.462473 0.343702 -0.708959 0.487246 23.264005 -0.485455 -14.188258 -8.145077 13.330077 -21.316438 -0.000003 -0.000001 0.000001 -0.000003 -0.000001 0.000001 -0.000003 -0.000001 0.000001 2.666679 -16.069898 -8.540999 -40.770933 -44.765804 -69.205396 0.000069 -118.203746 0.000043 -40.794807 -9.930784 33.402835 -0.144214 -0.495924 -8.324391 2.737037 5.498134 -52.902998 1.987046 4.843081 -44.595685 -0.000002 0.000000 0.000000 3.371884 9.797131 5.257828 6.844004 19.586493 -1.556986 -1.637837 33.618167 8.290159 -0.000001 -0.000001 0.000003 0.449570 2.452263 -20.319780 2.683732 5.457582 -52.344347 0.537961 2.672683 -22.756553 -0.000001 -0.000002 -0.000001 -0.264415 -2.206805 -6.069213 2.600756 5.392874 -51.467029 1.532971 4.336132 -38.925477 -0.000001 -0.000001 0.000002 -0.370873 -3.748172 -5.454055 2.158753 0.922525 -46.740532 0.263325 1.889585 -15.865443 0.000000 -0.000001 0.000002 0.409536 -3.789053 4.798572 -29.304039 34.920496 65.382225 0.000017 132.596457 -0.000015 60.446034 -11.023218 -34.516788 -0.410870 1.178976 12.253966 0.860895 -3.356288 28.765140 1.701950 -4.562087 40.900153 0.000000 0.000002 0.000000 -3.434422 -7.449196 -22.485140 13.462741 -23.604143 3.164100 -5.431176 -12.901414 -5.241068 -0.000001 0.000005 0.000003 -0.556713 2.029817 11.727355 0.956557 -3.524609 30.359197 1.038228 -3.660247 31.662465 0.000001 -0.000001 -0.000004 -0.933565 3.461827 12.783456 1.368326 -4.146908 36.508311 1.210185 -3.924802 34.261691 -0.000001 0.000002 -0.000002 -1.641336 3.783805 18.862851 1.060584 -3.696160 32.011010 1.234633 -3.960376 34.617315 0.000000 0.000001 -0.000001 -53.346298 -2.734714 10.666386 61.593000 -0.583326 5.132349 6.964987 -0.064625 -6.613952 -2.060825 0.000002 -0.000001 -0.000000 0.000001 0.000000 -51.298850 -4.586673 -4.434638 61.833866 -2.169545 2.119950 4.751889 0.066356 2.146539 -0.497685 0.000012 -0.000003 -0.000000 -0.000001 0.000000 
-2.671177 154.550537 -3.064293 -15.343390 -2.163587 -5.824915 22.470469 -4.082209 4.186543 0.380647 -0.700761 0.472734 0.382145 -0.681995 0.496372 23.342610 -0.567099 -14.004121 -8.293910 12.910418 -21.339825 -0.000000 -0.000000 -0.000002 -0.000000 -0.000000 -0.000002 -0.000000 -0.000000 -0.000002 2.773074 -16.431685 -8.794266 -38.216264 -40.645465 -70.391117 0.000023 -113.433009 0.000013 -45.735722 -10.603494 30.485600 -0.144202 -0.495943 -8.324387 2.737026 5.498143 -52.902998 1.987050 4.843066 -44.595688 0.000001 0.000000 0.000003 3.371897 9.797130 5.257831 6.844020 19.586503 -1.556985 -1.637872 33.618171 8.290172 -0.000002 0.000000 -0.000000 0.449568 2.452257 -20.319777 2.683741 5.457576 -52.344347 0.537933 2.672701 -22.756531 0.000002 -0.000001 -0.000001 -0.264396 -2.206809 -6.069223 2.600741 5.392882 -51.467057 1.532978 4.336128 -38.925460 0.000001 0.000001 -0.000003 -0.370889 -3.748169 -5.454051 2.158746 0.922528 -46.740538 0.263307 1.889592 -15.865418 -0.000001 -0.000002 0.000000 0.412216 -3.346328 4.893771 -27.600726 34.779296 65.174396 0.000013 127.162590 -0.000030 59.151077 -12.359655 -33.165274 -0.410859 1.178965 12.253936 0.860888 -3.356276 28.765150 1.701940 -4.562075 40.900153 0.000002 0.000000 -0.000000 -3.434414 -7.449208 -22.485160 13.462695 -23.604114 3.164101 -5.431125 -12.901435 -5.241059 -0.000002 -0.000000 -0.000001 -0.556719 2.029832 11.727344 0.956566 -3.524624 30.359211 1.038221 -3.660225 31.662455 0.000001 0.000001 -0.000001 -0.933549 3.461827 12.783427 1.368308 -4.146916 36.508317 1.210182 -3.924792 34.261684 0.000001 0.000002 0.000002 -1.641317 3.783791 18.862814 1.060564 -3.696152 32.011010 1.234634 -3.960408 34.617338 0.000001 0.000000 0.000001 -53.192038 -2.707653 10.645317 61.587898 -0.657585 5.146537 6.983222 -0.062223 -6.558649 -2.035779 0.000001 0.000005 -0.000000 0.000000 0.000000 -51.100310 -4.618051 -4.496045 61.808526 -2.180893 2.129015 4.813119 0.066536 2.242092 -0.505640 -0.000006 -0.000001 -0.000000 -0.000000 -0.000000 
